<svg width="1134" height="797" viewBox="0 0 1134 797" fill="none" xmlns="http://www.w3.org/2000/svg">
    <path style="mix-blend-mode:overlay" opacity="0.61" fillRule="evenodd" clipRule="evenodd"
        d="M579.818 398.942V398.423L1134 392.132C1131.28 354.571 1133.59 373.336 1127.03 335.866L579.643 396.988C579.643 396.82 579.643 396.636 579.513 396.468C579.382 396.3 579.404 396.117 579.339 395.949L1113.91 293.16C1097.78 256.957 1106.75 274.837 1087 239.612L578.686 394.712L578.359 394.239L578.011 393.781L1059.09 200.676C1030.8 168.612 1045.73 184.278 1014.27 153.786L576.922 392.636L576.422 392.208L575.921 391.827L973.719 121.049C935.08 94.9856 955.019 107.521 913.833 83.4271L574.441 390.88L573.853 390.559C573.635 390.472 573.424 390.375 573.222 390.269L862.743 58.6611C815.788 40.0331 839.69 48.7363 791.059 32.5361L571.48 389.674L570.784 389.491L570.065 389.307L732.567 17.4353C680.497 7.63268 706.706 11.8774 653.831 4.73161L568.15 389.002L567.41 388.926H566.669L592.247 0.349456C538.501 -0.0780707 565.342 -0.520866 511.922 1.69311L564.689 388.926H563.927L563.186 389.032L450.251 8.18236C397.833 17.191 423.824 12.0301 372.364 23.6497L561.314 389.46L560.618 389.658L559.921 389.872L315.091 40.7355C267.744 58.5695 290.928 49.0723 245.432 69.1966L558.289 390.559L557.679 390.865L557.091 391.201L196.344 95.5963C156.877 121.019 175.947 107.811 139.136 135.143L555.633 392.178L555.132 392.59L554.675 393.018L100.736 169.299C71.3707 200.905 85.2372 184.736 59.0715 217.808L553.695 394.193C553.574 394.347 553.465 394.505 553.369 394.667C553.254 394.825 553.152 394.988 553.064 395.155L33.9289 257.736C16.6882 293.633 24.3943 275.509 10.8325 312.154L552.498 396.468L552.368 396.988C552.368 397.171 552.367 397.339 552.259 397.522L0.775466 355.029C-3.1864 392.636 9.33049 373.535 9.15634 411.249L552.193 398.896C552.193 399.064 552.193 399.247 552.193 399.415C552.193 399.583 552.193 399.782 552.193 399.95L2.99585 454.78C12.4869 492.051 6.80534 473.576 20.0624 510.267L552.738 401.293C552.738 401.461 552.89 401.629 552.977 401.812L553.238 402.286L40.7424 551.462C63.2293 585.863 51.0825 568.975 76.9652 602.078L554.109 403.584L554.523 404.026C554.675 404.179 554.827 404.317 554.958 404.469L111.512 638.235C145.231 667.429 127.642 653.275 164.213 680.743L556.242 405.446L556.787 405.798L557.353 406.149L210.341 709.678C253.399 732.199 231.347 721.496 276.582 741.742L558.985 406.912L559.638 407.187L560.335 407.401L331.896 761.912C381.964 776.265 356.582 769.73 407.846 781.517L562.229 407.859L562.947 407.996L563.709 408.088L468.602 791.335C521.609 796.42 494.964 794.526 548.558 797L565.668 408.241H566.408H567.17L610.446 796.069C663.975 791.778 637.33 794.542 690.336 787.625L569.042 408.042L569.761 407.905L570.479 407.752L750.308 775.654C800.594 762.141 775.799 769.547 824.67 753.499L572.286 407.202L572.961 406.958L573.592 406.683L878.286 731.558C921.997 709.769 900.729 721.19 942.111 697.31L575.137 405.828C575.334 405.723 575.516 405.606 575.682 405.477L576.248 405.095L986.148 666.833C1020.85 638.128 1004.24 652.893 1035.95 622.554L577.423 404.011L577.858 403.584L578.229 403.11L1068.02 585.145C1091.55 551.111 1080.67 568.349 1100.67 533.231L578.947 401.919C578.947 401.751 579.099 401.583 579.186 401.4C579.273 401.217 579.317 401.064 579.382 400.896L1118.44 491.44C1129.08 454.429 1124.7 472.996 1131.5 435.724L579.665 399.553C579.774 399.308 579.796 399.14 579.818 398.942Z"
        fill="url(#paint0_radial_738_5499)" fillOpacity="0.4" />
    <defs>
        <radialGradient id="paint0_radial_738_5499" cx="0" cy="0" r="1"
            gradientUnits="userSpaceOnUse"
            gradientTransform="translate(562.446 384.162) scale(550.982 386.469)">
            <stop stopColor="white" />
            <stop offset="0.15" stopColor="white" stop-opacity="0.99" />
            <stop offset="0.28" stopColor="white" stop-opacity="0.94" />
            <stop offset="0.4" stopColor="white" stop-opacity="0.87" />
            <stop offset="0.51" stopColor="white" stop-opacity="0.78" />
            <stop offset="0.63" stopColor="white" stop-opacity="0.65" />
            <stop offset="0.74" stopColor="white" stop-opacity="0.49" />
            <stop offset="0.85" stopColor="white" stop-opacity="0.3" />
            <stop offset="0.96" stopColor="white" stop-opacity="0.1" />
            <stop offset="1" stopColor="white" stop-opacity="0" />
        </radialGradient>
    </defs>
</svg>